<?xml version="1.0" standalone="no"?>
<!DOCTYPE svg PUBLIC "-//W3C//DTD SVG 20010904//EN"
 "http://www.w3.org/TR/2001/REC-SVG-20010904/DTD/svg10.dtd">
<svg version="1.0" xmlns="http://www.w3.org/2000/svg"
 width="500.000000pt" height="500.000000pt" viewBox="0 0 500.000000 500.000000"
 preserveAspectRatio="xMidYMid meet">

<g transform="translate(0.000000,500.000000) scale(0.100000,-0.100000)"
fill="#000000" stroke="none">
<path d="M3672 4672 c-4 -22 -94 -113 -152 -152 -30 -20 -127 -74 -215 -118
-88 -45 -174 -94 -191 -109 -45 -41 -87 -109 -119 -191 -16 -39 -30 -70 -32
-68 -6 6 16 121 32 167 l15 40 -70 -37 c-117 -64 -273 -188 -316 -253 -29 -45
-50 -127 -60 -236 -7 -77 -7 -79 -16 -40 -5 22 -8 81 -6 131 2 64 0 90 -8 87
-30 -11 -165 -188 -217 -283 -52 -96 -69 -153 -82 -270 l-11 -105 -24 74 -23
74 -17 -36 c-40 -82 -54 -196 -40 -335 l11 -110 -82 -163 c-45 -90 -98 -187
-119 -216 -31 -43 -38 -63 -44 -120 -3 -37 -15 -101 -26 -142 -11 -41 -20 -78
-20 -83 0 -21 20 -3 53 46 19 29 67 81 105 116 65 58 71 66 86 128 21 85 57
180 99 257 29 55 38 63 106 98 71 35 72 37 38 37 -66 0 -48 18 50 50 54 18
125 46 158 63 l59 32 -82 3 c-80 3 -105 14 -59 27 12 3 38 10 57 15 110 29
180 55 224 85 55 37 106 79 106 87 0 3 -26 8 -57 11 -117 12 -163 20 -163 27
0 5 35 11 78 15 155 14 245 47 331 123 46 40 49 62 8 62 -45 0 -197 32 -191
41 3 5 48 9 99 9 69 0 112 6 157 21 68 22 150 76 168 110 11 19 9 21 -22 19
-73 -4 -158 0 -158 9 0 4 30 11 67 14 85 8 162 45 225 108 43 43 88 104 88
120 0 4 -19 3 -42 -2 -63 -12 -231 -11 -223 1 3 6 25 10 49 10 87 0 216 59
285 130 42 44 110 174 97 187 -3 3 -28 -3 -56 -12 -62 -21 -75 -14 -23 12 87
44 126 155 121 338 -2 61 -5 104 -6 97z m-193 -349 c-14 -16 -32 -36 -40 -46
-16 -19 -138 -130 -214 -193 -298 -246 -372 -310 -445 -384 -138 -137 -330
-387 -435 -564 -25 -43 -89 -163 -142 -265 -53 -102 -100 -190 -104 -195 -37
-41 52 196 138 369 60 118 111 198 230 358 199 266 325 390 648 635 169 129
282 220 349 284 37 36 47 36 15 1z m-1489 -1876 c0 -11 -58 -108 -75 -125 -4
-4 3 18 15 48 13 30 25 63 27 73 6 20 33 23 33 4z"/>
<path d="M1690 3740 c-36 -5 -113 -17 -172 -26 l-108 -18 0 -63 0 -63 -54 0
c-94 0 -86 73 -86 -804 0 -587 3 -775 12 -784 9 -9 138 -12 520 -12 492 0 510
-1 536 -20 37 -27 124 -42 202 -34 71 7 130 27 130 43 0 8 161 11 513 11 386
0 516 3 525 12 18 18 17 1561 -1 1576 -7 6 -37 12 -67 14 l-55 3 -3 60 -3 61
-85 13 c-84 13 -86 13 -109 -9 -14 -13 -22 -26 -20 -31 3 -4 34 -10 69 -14 35
-4 68 -10 74 -14 9 -5 12 -201 13 -730 0 -398 -1 -724 -3 -726 -2 -1 -55 6
-118 17 -83 15 -162 20 -285 21 -243 1 -396 -28 -531 -102 -29 -16 -56 -26
-59 -23 -3 3 -5 182 -5 398 l0 393 -30 -10 -30 -11 0 -389 0 -389 -40 25 c-53
33 -165 70 -270 89 -159 27 -155 27 -185 -3 -23 -24 -24 -29 -10 -35 9 -3 36
-6 60 -6 77 0 246 -40 329 -78 64 -29 75 -37 57 -42 -12 -3 -172 -4 -354 -3
-183 1 -419 2 -525 3 l-192 0 2 733 3 732 38 3 37 3 0 -700 c0 -625 2 -701 15
-701 9 0 44 6 78 14 98 22 181 36 215 36 21 0 35 6 42 21 23 42 12 46 -90 32
-52 -6 -119 -15 -148 -19 l-52 -7 2 729 3 729 40 7 c121 21 280 38 361 38 90
0 293 -29 347 -49 24 -9 28 -8 42 19 l15 29 -53 15 c-28 8 -79 20 -112 26 -78
15 -342 21 -425 10z m1968 -966 l-3 -736 -533 0 c-294 0 -536 3 -539 5 -7 8
102 62 152 76 163 47 456 56 655 21 63 -12 132 -23 153 -27 l37 -6 0 695 c0
382 3 698 7 701 3 4 21 7 40 7 l33 0 -2 -736z"/>
<path d="M2470 1679 c-25 -5 -60 -11 -77 -14 -40 -7 -44 -32 -5 -37 l27 -3 0
-260 0 -260 -22 -3 c-13 -2 -23 -10 -23 -18 0 -11 20 -14 100 -14 78 0 100 3
100 14 0 7 -9 16 -20 19 -19 5 -20 14 -20 140 0 151 2 155 69 164 28 4 48 1
66 -11 25 -16 25 -18 25 -152 0 -127 -1 -136 -20 -141 -11 -3 -20 -12 -20 -19
0 -11 21 -14 95 -14 74 0 95 3 95 14 0 7 -9 16 -20 19 -19 5 -20 14 -20 129 0
184 -17 227 -94 247 -52 13 -103 1 -146 -35 l-30 -26 0 131 c0 71 -3 132 -7
134 -5 2 -28 0 -53 -4z"/>
<path d="M695 1651 c-180 -47 -279 -233 -215 -403 27 -73 70 -122 138 -155 52
-25 67 -28 162 -27 83 0 116 4 155 21 l50 21 5 88 c5 83 7 89 28 92 14 2 22
10 22 23 0 18 -8 19 -110 19 -103 0 -110 -1 -110 -20 0 -15 7 -20 25 -20 25 0
25 -1 25 -83 l0 -84 -42 -12 c-81 -25 -169 23 -213 115 -29 62 -32 185 -5 256
36 97 102 137 206 125 54 -6 80 -27 106 -85 27 -61 42 -49 46 35 l3 71 -33 12
c-41 14 -203 22 -243 11z"/>
<path d="M3519 1623 c-19 -46 -26 -65 -49 -128 -12 -33 -26 -69 -30 -80 -5
-11 -30 -76 -55 -145 -51 -137 -68 -170 -90 -170 -8 0 -15 -7 -15 -15 0 -12
17 -15 90 -15 73 0 90 3 90 15 0 9 -9 15 -25 15 -36 0 -41 22 -20 91 l18 59
104 0 104 0 25 -56 c30 -68 28 -88 -9 -92 -15 -2 -27 -9 -27 -18 0 -11 23 -14
125 -14 104 0 125 2 125 15 0 8 -8 15 -18 15 -30 0 -46 26 -122 205 -40 94
-83 193 -95 220 -12 28 -28 67 -36 88 -11 33 -17 37 -46 37 -27 0 -36 -5 -44
-27z m64 -205 c20 -57 37 -106 37 -110 0 -5 -36 -8 -80 -8 -44 0 -80 3 -80 8
0 16 73 212 79 212 4 0 23 -46 44 -102z"/>
<path d="M4377 1551 c-15 -22 -42 -52 -62 -68 -19 -15 -35 -34 -35 -41 0 -7 4
-11 9 -8 5 4 16 3 25 0 14 -5 16 -29 16 -163 0 -144 2 -159 20 -179 26 -28 60
-36 112 -28 92 15 133 68 45 59 -70 -7 -72 -3 -72 164 l0 148 30 1 c67 3 75 5
75 19 0 12 -13 15 -55 15 l-55 0 0 60 c0 73 -15 78 -53 21z"/>
<path d="M1303 1471 c-17 -11 -37 -29 -43 -40 -15 -29 -25 -26 -26 9 -1 17 -4
33 -7 36 -5 5 -93 -9 -139 -22 -28 -8 -21 -32 10 -36 l27 -3 0 -155 c0 -153 0
-155 -22 -158 -13 -2 -23 -10 -23 -18 0 -11 22 -14 115 -14 93 0 115 3 115 14
0 9 -12 16 -32 18 l-33 3 -3 124 c-2 116 -1 126 19 148 26 26 61 30 79 8 21
-25 36 -17 54 27 13 34 14 45 4 54 -24 24 -62 25 -95 5z"/>
<path d="M1545 1470 c-55 -22 -84 -53 -85 -87 0 -18 6 -23 26 -23 19 0 28 7
37 30 10 27 15 30 58 30 40 0 51 -4 69 -27 13 -17 20 -38 18 -57 -3 -29 -6
-31 -88 -51 -47 -12 -95 -27 -106 -33 -47 -25 -57 -124 -15 -165 38 -38 130
-31 192 14 12 9 21 6 43 -16 23 -23 34 -27 65 -22 48 6 92 34 84 53 -3 9 -13
12 -25 8 -40 -12 -48 10 -48 145 0 108 -3 131 -20 159 -35 56 -124 75 -205 42z
m125 -263 c0 -59 -2 -65 -25 -75 -38 -17 -86 -15 -101 6 -17 22 -18 76 -1 90
10 9 99 39 120 41 4 1 7 -28 7 -62z"/>
<path d="M2105 1478 c-16 -6 -42 -22 -57 -36 l-28 -26 0 33 0 33 -42 -7 c-83
-13 -128 -28 -128 -41 0 -7 12 -14 28 -16 l27 -3 3 -258 c2 -252 2 -259 -18
-264 -11 -3 -20 -12 -20 -19 0 -11 23 -14 110 -14 91 0 110 3 110 15 0 9 -9
15 -23 15 -38 0 -47 19 -47 100 l0 77 53 -5 c76 -6 131 12 181 61 87 83 95
218 20 306 -24 27 -47 42 -78 50 -52 13 -51 13 -91 -1z m58 -79 c34 -26 51
-89 43 -157 -8 -64 -26 -103 -60 -126 -29 -19 -97 -21 -114 -4 -8 8 -12 55
-12 145 l0 132 28 15 c38 21 85 19 115 -5z"/>
<path d="M3017 1474 c-119 -37 -182 -183 -128 -299 81 -175 342 -144 393 48
15 56 2 114 -38 178 -42 68 -142 100 -227 73z m116 -52 c25 -27 47 -99 47
-152 0 -53 -22 -125 -47 -152 -24 -27 -84 -24 -111 5 -58 61 -57 230 1 295 26
28 86 30 110 4z"/>
<path d="M4144 1471 c-17 -10 -40 -32 -52 -47 l-21 -29 -1 44 0 44 -42 -7
c-78 -12 -118 -26 -118 -41 0 -9 10 -15 25 -15 33 0 36 -18 33 -175 -3 -124
-4 -130 -25 -140 -13 -5 -23 -15 -23 -22 0 -10 28 -13 110 -13 91 0 110 3 110
15 0 9 -9 15 -23 15 -41 0 -47 17 -47 136 0 107 1 112 26 138 30 29 56 33 74
11 27 -32 47 -14 66 59 4 17 -1 25 -21 34 -33 15 -34 15 -71 -7z"/>
</g>
</svg>
